<svg width="74" height="52" viewBox="0 0 74 52" fill="none" xmlns="http://www.w3.org/2000/svg">
<path d="M52.608 51.712C48.256 51.712 44.8854 50.2187 42.496 47.232C40.1067 44.2453 38.912 40.832 38.912 36.992C38.912 31.104 40.2347 25.6427 42.88 20.608C45.6107 15.488 49.408 11.136 54.272 7.55199C59.2214 3.88266 65.0667 1.36533 71.808 -7.62939e-06L73.728 5.632C70.912 6.91199 68.48 8.66133 66.432 10.88C64.384 13.0987 62.8054 15.4453 61.696 17.92C60.672 20.3947 60.16 22.6987 60.16 24.832L69.12 36.352C69.0347 39.0827 68.224 41.6427 66.688 44.032C65.152 46.336 63.1467 48.2133 60.672 49.664C58.1974 51.0293 55.5094 51.712 52.608 51.712ZM13.696 51.712C9.34403 51.712 5.97337 50.2187 3.58403 47.232C1.1947 44.2453 3.14713e-05 40.832 3.14713e-05 36.992C3.14713e-05 31.104 1.3227 25.6427 3.96803 20.608C6.6987 15.488 10.496 11.136 15.36 7.55199C20.3094 3.88266 26.1547 1.36533 32.896 -7.62939e-06L34.816 5.632C32 6.91199 29.568 8.66133 27.52 10.88C25.5574 13.0987 24.0214 15.4453 22.912 17.92C21.8027 20.3947 21.248 22.6987 21.248 24.832L30.208 36.352C30.1227 39.0827 29.312 41.6427 27.776 44.032C26.24 46.336 24.2347 48.2133 21.76 49.664C19.2854 51.0293 16.5974 51.712 13.696 51.712Z" fill="#274C8D"/>
</svg>
