<svg width="74" height="52" viewBox="0 0 74 52" fill="none" xmlns="http://www.w3.org/2000/svg">
<path d="M40.8328 51.712L38.9128 46.08C41.7288 44.7147 44.1181 42.9654 46.0808 40.832C48.1288 38.6134 49.7075 36.2667 50.8168 33.792C51.9261 31.232 52.4808 28.928 52.4808 26.88L43.5208 15.36C43.6915 12.6294 44.5021 10.112 45.9528 7.80802C47.4888 5.41869 49.4941 3.54135 51.9688 2.17602C54.4435 0.725355 57.1315 2.28882e-05 60.0328 2.28882e-05C64.3848 2.28882e-05 67.7555 1.49335 70.1448 4.48002C72.5341 7.46669 73.7288 10.88 73.7288 14.72C73.7288 20.5227 72.3635 25.984 69.6328 31.104C66.9875 36.224 63.1901 40.576 58.2408 44.16C53.3768 47.744 47.5741 50.2614 40.8328 51.712ZM1.9208 51.712L0.000797272 46.08C2.8168 44.7147 5.2488 42.9654 7.2968 40.832C9.3448 38.6134 10.8808 36.2667 11.9048 33.792C13.0141 31.232 13.5688 28.928 13.5688 26.88L4.6088 15.36C4.77946 12.6294 5.59013 10.112 7.0408 7.80802C8.5768 5.41869 10.5821 3.54135 13.0568 2.17602C15.5315 0.725355 18.2195 2.28882e-05 21.1208 2.28882e-05C25.4728 2.28882e-05 28.8435 1.49335 31.2328 4.48002C33.6221 7.46669 34.8168 10.88 34.8168 14.72C34.8168 20.5227 33.4515 25.984 30.7208 31.104C28.0755 36.224 24.2781 40.576 19.3288 44.16C14.4648 47.744 8.66213 50.2614 1.9208 51.712Z" fill="#274C8D"/>
</svg>
